{
  "accessors": [
    {
      "bufferView": 2,
      "componentType": 5126,
      "count": 88,
      "max": [
        1.0162098407745361,
        0.8502864241600037,
        0.8590061068534851
      ],
      "min": [
        -0.8233910799026489,
        -0.8502864241600037,
        -0.9680448770523071
      ],
      "type": "VEC3"
    },
    {
      "bufferView": 2,
      "byteOffset": 1056,
      "componentType": 5126,
      "count": 88,
      "max": [
        0.9978792667388916,
        1.0,
        0.9999704957008362
      ],
      "min": [
        -1.0,
        -1.0,
        -0.999997079372406
      ],
      "type": "VEC3"
    },
    {
      "bufferView": 1,
      "componentType": 5126,
      "count": 88,
      "max": [
        0.986969530582428,
        0.9828552603721619
      ],
      "min": [
        0.0219440795481205,
        0.0027552247047424316
      ],
      "type": "VEC2"
    },
    {
      "bufferView": 0,
      "componentType": 5125,
      "count": 126,
      "type": "SCALAR"
    },
    {
      "bufferView": 2,
      "byteOffset": 2112,
      "componentType": 5126,
      "count": 54,
      "max": [
        0.9848077893257141,
        1.0,
        1.0
      ],
      "min": [
        -0.9848077297210693,
        -0.9396926760673523,
        -1.0
      ],
      "type": "VEC3"
    },
    {
      "bufferView": 2,
      "byteOffset": 2760,
      "componentType": 5126,
      "count": 54,
      "max": [
        0.9848078489303589,
        0.9396927356719971,
        1.0
      ],
      "min": [
        -0.9848078489303589,
        -1.0,
        -1.0
      ],
      "type": "VEC3"
    },
    {
      "bufferView": 1,
      "byteOffset": 704,
      "componentType": 5126,
      "count": 54,
      "max": [
        0.8886287212371826,
        0.4881516993045807
      ],
      "min": [
        0.1912662237882614,
        0.35095271468162537
      ],
      "type": "VEC2"
    },
    {
      "bufferView": 0,
      "byteOffset": 504,
      "componentType": 5125,
      "count": 96,
      "type": "SCALAR"
    },
    {
      "bufferView": 2,
      "byteOffset": 3408,
      "componentType": 5126,
      "count": 54,
      "max": [
        0.9848077893257141,
        1.0,
        1.0
      ],
      "min": [
        -0.9848077297210693,
        -0.9396926760673523,
        -1.0
      ],
      "type": "VEC3"
    },
    {
      "bufferView": 2,
      "byteOffset": 4056,
      "componentType": 5126,
      "count": 54,
      "max": [
        0.9848078489303589,
        0.9396927356719971,
        1.0
      ],
      "min": [
        -0.9848078489303589,
        -1.0,
        -1.0
      ],
      "type": "VEC3"
    },
    {
      "bufferView": 1,
      "byteOffset": 1136,
      "componentType": 5126,
      "count": 54,
      "max": [
        0.8886287212371826,
        0.4881516993045807
      ],
      "min": [
        0.1912662237882614,
        0.35095271468162537
      ],
      "type": "VEC2"
    },
    {
      "bufferView": 0,
      "byteOffset": 888,
      "componentType": 5125,
      "count": 96,
      "type": "SCALAR"
    },
    {
      "bufferView": 2,
      "byteOffset": 4704,
      "componentType": 5126,
      "count": 54,
      "max": [
        0.9848077893257141,
        1.0,
        1.0
      ],
      "min": [
        -0.9848077297210693,
        -0.9396926760673523,
        -1.0
      ],
      "type": "VEC3"
    },
    {
      "bufferView": 2,
      "byteOffset": 5352,
      "componentType": 5126,
      "count": 54,
      "max": [
        0.9848078489303589,
        0.9396927356719971,
        1.0
      ],
      "min": [
        -0.9848078489303589,
        -1.0,
        -1.0
      ],
      "type": "VEC3"
    },
    {
      "bufferView": 1,
      "byteOffset": 1568,
      "componentType": 5126,
      "count": 54,
      "max": [
        0.8886287212371826,
        0.4881516993045807
      ],
      "min": [
        0.1912662237882614,
        0.35095271468162537
      ],
      "type": "VEC2"
    },
    {
      "bufferView": 0,
      "byteOffset": 1272,
      "componentType": 5125,
      "count": 96,
      "type": "SCALAR"
    },
    {
      "bufferView": 2,
      "byteOffset": 6000,
      "componentType": 5126,
      "count": 54,
      "max": [
        0.9848077893257141,
        1.0,
        1.0
      ],
      "min": [
        -0.9848077297210693,
        -0.9396926760673523,
        -1.0
      ],
      "type": "VEC3"
    },
    {
      "bufferView": 2,
      "byteOffset": 6648,
      "componentType": 5126,
      "count": 54,
      "max": [
        0.9848078489303589,
        0.9396927356719971,
        1.0
      ],
      "min": [
        -0.9848078489303589,
        -1.0,
        -1.0
      ],
      "type": "VEC3"
    },
    {
      "bufferView": 1,
      "byteOffset": 2000,
      "componentType": 5126,
      "count": 54,
      "max": [
        0.8886287212371826,
        0.4881516993045807
      ],
      "min": [
        0.1912662237882614,
        0.35095271468162537
      ],
      "type": "VEC2"
    },
    {
      "bufferView": 0,
      "byteOffset": 1656,
      "componentType": 5125,
      "count": 96,
      "type": "SCALAR"
    }
  ],
  "asset": {
    "extras": {
      "author": "jonniemadeit (https://sketchfab.com/jonniemadeit)",
      "license": "CC-BY-4.0 (http://creativecommons.org/licenses/by/4.0/)",
      "source": "https://sketchfab.com/3d-models/psx-sedan-car-jonniemadeit-90bbcad62e0d480581bf0a191b2f6bd2",
      "title": "PSX Sedan Car - @jonniemadeit"
    },
    "generator": "Sketchfab-15.16.0",
    "version": "2.0"
  },
  "bufferViews": [
    {
      "buffer": 0,
      "byteLength": 2040,
      "name": "floatBufferViews",
      "target": 34963
    },
    {
      "buffer": 0,
      "byteLength": 2432,
      "byteOffset": 2040,
      "byteStride": 8,
      "name": "floatBufferViews",
      "target": 34962
    },
    {
      "buffer": 0,
      "byteLength": 7296,
      "byteOffset": 4472,
      "byteStride": 12,
      "name": "floatBufferViews",
      "target": 34962
    }
  ],
  "buffers": [
    {
      "byteLength": 11768,
      "uri": "scene.bin"
    }
  ],
  "images": [
    {
      "uri": "textures/Material.006_baseColor.png"
    }
  ],
  "materials": [
    {
      "doubleSided": true,
      "name": "Material.006",
      "pbrMetallicRoughness": {
        "baseColorTexture": {
          "index": 0
        },
        "metallicFactor": 0.0,
        "roughnessFactor": 0.8211145618000169
      }
    },
    {
      "doubleSided": true,
      "name": "Material.010",
      "pbrMetallicRoughness": {
        "baseColorTexture": {
          "index": 0
        },
        "metallicFactor": 0.0,
        "roughnessFactor": 0.8211145618000169
      }
    },
    {
      "doubleSided": true,
      "name": "Material.014",
      "pbrMetallicRoughness": {
        "baseColorTexture": {
          "index": 0
        },
        "metallicFactor": 0.0,
        "roughnessFactor": 0.8211145618000169
      }
    },
    {
      "doubleSided": true,
      "name": "Material.016",
      "pbrMetallicRoughness": {
        "baseColorTexture": {
          "index": 0
        },
        "metallicFactor": 0.0,
        "roughnessFactor": 0.8211145618000169
      }
    },
    {
      "doubleSided": true,
      "name": "Material.015",
      "pbrMetallicRoughness": {
        "baseColorTexture": {
          "index": 0
        },
        "metallicFactor": 0.0,
        "roughnessFactor": 0.8211145618000169
      }
    }
  ],
  "meshes": [
    {
      "name": "Car_Material.006_0",
      "primitives": [
        {
          "attributes": {
            "NORMAL": 1,
            "POSITION": 0,
            "TEXCOORD_0": 2
          },
          "indices": 3,
          "material": 0,
          "mode": 4
        }
      ]
    },
    {
      "name": "Wheel1_Material.010_0",
      "primitives": [
        {
          "attributes": {
            "NORMAL": 5,
            "POSITION": 4,
            "TEXCOORD_0": 6
          },
          "indices": 7,
          "material": 1,
          "mode": 4
        }
      ]
    },
    {
      "name": "Wheel2_Material.014_0",
      "primitives": [
        {
          "attributes": {
            "NORMAL": 9,
            "POSITION": 8,
            "TEXCOORD_0": 10
          },
          "indices": 11,
          "material": 2,
          "mode": 4
        }
      ]
    },
    {
      "name": "Wheel4_Material.016_0",
      "primitives": [
        {
          "attributes": {
            "NORMAL": 13,
            "POSITION": 12,
            "TEXCOORD_0": 14
          },
          "indices": 15,
          "material": 3,
          "mode": 4
        }
      ]
    },
    {
      "name": "Wheel3_Material.015_0",
      "primitives": [
        {
          "attributes": {
            "NORMAL": 17,
            "POSITION": 16,
            "TEXCOORD_0": 18
          },
          "indices": 19,
          "material": 4,
          "mode": 4
        }
      ]
    }
  ],
  "nodes": [
    {
      "children": [
        1
      ],
      "matrix": [
        1.0,
        0.0,
        0.0,
        0.0,
        0.0,
        2.220446049250313e-16,
        -1.0,
        0.0,
        0.0,
        1.0,
        2.220446049250313e-16,
        0.0,
        0.0,
        0.0,
        0.0,
        1.0
      ],
      "name": "Sketchfab_model"
    },
    {
      "children": [
        2
      ],
      "matrix": [
        0.009999999776482582,
        0.0,
        0.0,
        0.0,
        0.0,
        0.0,
        0.009999999776482582,
        0.0,
        0.0,
        -0.009999999776482582,
        0.0,
        0.0,
        0.0,
        0.0,
        0.0,
        1.0
      ],
      "name": "car.fbx"
    },
    {
      "children": [
        3,
        5,
        7,
        9,
        11
      ],
      "name": "RootNode"
    },
    {
      "children": [
        4
      ],
      "matrix": [
        187.54652404785156,
        0.0,
        0.0,
        0.0,
        0.0,
        -1.629206793918314e-05,
        -99.99999999999868,
        0.0,
        0.0,
        54.41552352905202,
        -8.865414062815458e-06,
        0.0,
        0.0,
        0.0,
        0.0,
        1.0
      ],
      "name": "Car"
    },
    {
      "mesh": 0,
      "name": "Car_Material.006_0"
    },
    {
      "children": [
        6
      ],
      "matrix": [
        -23.83223533630371,
        -0.0,
        -0.0,
        -0.0,
        -0.0,
        -23.832235336303686,
        -1.0417400925260876e-06,
        -0.0,
        -0.0,
        3.2991656539915645e-07,
        -7.5476112365722585,
        -0.0,
        121.4263916015625,
        -50.30936050415039,
        85.0341567993164,
        1.0
      ],
      "name": "Wheel1"
    },
    {
      "mesh": 1,
      "name": "Wheel1_Material.010_0"
    },
    {
      "children": [
        8
      ],
      "matrix": [
        -23.83223533630371,
        -0.0,
        -0.0,
        -0.0,
        -0.0,
        -23.832235336303686,
        -1.0417400925260876e-06,
        -0.0,
        -0.0,
        3.2991656539915645e-07,
        -7.5476112365722585,
        -0.0,
        -72.11141967773438,
        -50.30936050415039,
        85.0341567993164,
        1.0
      ],
      "name": "Wheel2"
    },
    {
      "mesh": 2,
      "name": "Wheel2_Material.014_0"
    },
    {
      "children": [
        10
      ],
      "matrix": [
        -23.83223533630371,
        -0.0,
        -0.0,
        -0.0,
        -0.0,
        -23.832235336303686,
        -1.0417400925260876e-06,
        -0.0,
        -0.0,
        3.2991656539915645e-07,
        -7.5476112365722585,
        -0.0,
        121.4263916015625,
        -50.30936050415039,
        -83.56751251220703,
        1.0
      ],
      "name": "Wheel4"
    },
    {
      "mesh": 3,
      "name": "Wheel4_Material.016_0"
    },
    {
      "children": [
        12
      ],
      "matrix": [
        -23.83223533630371,
        -0.0,
        -0.0,
        -0.0,
        -0.0,
        -23.832235336303686,
        -1.0417400925260876e-06,
        -0.0,
        -0.0,
        3.2991656539915645e-07,
        -7.5476112365722585,
        -0.0,
        -72.11141967773438,
        -50.30936050415039,
        -83.56751251220703,
        1.0
      ],
      "name": "Wheel3"
    },
    {
      "mesh": 4,
      "name": "Wheel3_Material.015_0"
    }
  ],
  "samplers": [
    {
      "magFilter": 9729,
      "minFilter": 9987,
      "wrapS": 10497,
      "wrapT": 10497
    }
  ],
  "scene": 0,
  "scenes": [
    {
      "name": "Sketchfab_Scene",
      "nodes": [
        0
      ]
    }
  ],
  "textures": [
    {
      "sampler": 0,
      "source": 0
    }
  ]
}
