{
  "accessors": [
    {
      "bufferView": 2,
      "componentType": 5126,
      "count": 364,
      "max": [
        1.0724714994430542,
        0.3488979935646057,
        1.1236461400985718
      ],
      "min": [
        -1.0724717378616333,
        -0.29379981756210327,
        -1.0752544403076172
      ],
      "type": "VEC3"
    },
    {
      "bufferView": 2,
      "byteOffset": 4368,
      "componentType": 5126,
      "count": 364,
      "max": [
        1.0,
        1.0,
        1.0
      ],
      "min": [
        -1.0,
        -1.0,
        -1.0
      ],
      "type": "VEC3"
    },
    {
      "bufferView": 1,
      "componentType": 5126,
      "count": 364,
      "max": [
        0.9923133850097656,
        0.9671100378036499
      ],
      "min": [
        0.006144337356090546,
        0.03595098853111267
      ],
      "type": "VEC2"
    },
    {
      "bufferView": 0,
      "componentType": 5125,
      "count": 564,
      "type": "SCALAR"
    },
    {
      "bufferView": 2,
      "byteOffset": 8736,
      "componentType": 5126,
      "count": 292,
      "max": [
        1.0724714994430542,
        0.3488979935646057,
        1.1236461400985718
      ],
      "min": [
        -1.0724717378616333,
        -0.28127503395080566,
        -1.0752544403076172
      ],
      "type": "VEC3"
    },
    {
      "bufferView": 2,
      "byteOffset": 12240,
      "componentType": 5126,
      "count": 292,
      "max": [
        1.0,
        1.0,
        1.0
      ],
      "min": [
        -1.0,
        -1.0,
        -1.0
      ],
      "type": "VEC3"
    },
    {
      "bufferView": 1,
      "byteOffset": 2912,
      "componentType": 5126,
      "count": 292,
      "max": [
        0.9923133850097656,
        0.9658727645874023
      ],
      "min": [
        0.008315205574035645,
        0.03595098853111267
      ],
      "type": "VEC2"
    },
    {
      "bufferView": 0,
      "byteOffset": 2256,
      "componentType": 5125,
      "count": 456,
      "type": "SCALAR"
    },
    {
      "bufferView": 2,
      "byteOffset": 15744,
      "componentType": 5126,
      "count": 388,
      "max": [
        1.0724714994430542,
        0.3488979935646057,
        1.318798303604126
      ],
      "min": [
        -1.0724717378616333,
        -0.29379981756210327,
        -1.0752544403076172
      ],
      "type": "VEC3"
    },
    {
      "bufferView": 2,
      "byteOffset": 20400,
      "componentType": 5126,
      "count": 388,
      "max": [
        1.0,
        1.0,
        1.0
      ],
      "min": [
        -1.0,
        -1.0,
        -1.0
      ],
      "type": "VEC3"
    },
    {
      "bufferView": 1,
      "byteOffset": 5248,
      "componentType": 5126,
      "count": 388,
      "max": [
        0.9923133850097656,
        0.9671100378036499
      ],
      "min": [
        0.006144337356090546,
        0.0053549110889434814
      ],
      "type": "VEC2"
    },
    {
      "bufferView": 0,
      "byteOffset": 4080,
      "componentType": 5125,
      "count": 600,
      "type": "SCALAR"
    },
    {
      "bufferView": 2,
      "byteOffset": 25056,
      "componentType": 5126,
      "count": 292,
      "max": [
        1.0724714994430542,
        0.3488979935646057,
        1.1236461400985718
      ],
      "min": [
        -1.0724717378616333,
        -0.28127503395080566,
        -1.0752544403076172
      ],
      "type": "VEC3"
    },
    {
      "bufferView": 2,
      "byteOffset": 28560,
      "componentType": 5126,
      "count": 292,
      "max": [
        1.0,
        1.0,
        1.0
      ],
      "min": [
        -1.0,
        -1.0,
        -1.0
      ],
      "type": "VEC3"
    },
    {
      "bufferView": 1,
      "byteOffset": 8352,
      "componentType": 5126,
      "count": 292,
      "max": [
        0.9923133850097656,
        0.31771719455718994
      ],
      "min": [
        0.008315205574035645,
        0.0053549110889434814
      ],
      "type": "VEC2"
    },
    {
      "bufferView": 0,
      "byteOffset": 6480,
      "componentType": 5125,
      "count": 456,
      "type": "SCALAR"
    },
    {
      "bufferView": 2,
      "byteOffset": 32064,
      "componentType": 5126,
      "count": 24,
      "max": [
        0.3908674716949463,
        0.19543372094631195,
        0.19543375074863434
      ],
      "min": [
        -0.3908675014972687,
        -0.19543372094631195,
        -0.19543375074863434
      ],
      "type": "VEC3"
    },
    {
      "bufferView": 2,
      "byteOffset": 32352,
      "componentType": 5126,
      "count": 24,
      "max": [
        1.0,
        1.0,
        1.0
      ],
      "min": [
        -1.0,
        -1.0,
        -1.0
      ],
      "type": "VEC3"
    },
    {
      "bufferView": 1,
      "byteOffset": 10688,
      "componentType": 5126,
      "count": 24,
      "max": [
        0.4424017369747162,
        0.9449489712715149
      ],
      "min": [
        0.011286363005638123,
        0.32909223437309265
      ],
      "type": "VEC2"
    },
    {
      "bufferView": 0,
      "byteOffset": 8304,
      "componentType": 5125,
      "count": 36,
      "type": "SCALAR"
    },
    {
      "bufferView": 2,
      "byteOffset": 32640,
      "componentType": 5126,
      "count": 24,
      "max": [
        0.2788584530353546,
        0.2788584530353546,
        0.278858482837677
      ],
      "min": [
        -0.2788584530353546,
        -0.2788584530353546,
        -0.278858482837677
      ],
      "type": "VEC3"
    },
    {
      "bufferView": 2,
      "byteOffset": 32928,
      "componentType": 5126,
      "count": 24,
      "max": [
        1.0,
        1.0,
        1.0
      ],
      "min": [
        -1.0,
        -1.0,
        -1.0
      ],
      "type": "VEC3"
    },
    {
      "bufferView": 1,
      "byteOffset": 10880,
      "componentType": 5126,
      "count": 24,
      "max": [
        0.28350478410720825,
        0.9652571082115173
      ],
      "min": [
        0.0033720098435878754,
        0.3298378586769104
      ],
      "type": "VEC2"
    },
    {
      "bufferView": 0,
      "byteOffset": 8448,
      "componentType": 5125,
      "count": 36,
      "type": "SCALAR"
    },
    {
      "bufferView": 2,
      "byteOffset": 33216,
      "componentType": 5126,
      "count": 64,
      "max": [
        0.278858482837677,
        0.278858482837677,
        0.38745227456092834
      ],
      "min": [
        -0.2788584232330322,
        -0.278858482837677,
        -0.278858482837677
      ],
      "type": "VEC3"
    },
    {
      "bufferView": 2,
      "byteOffset": 33984,
      "componentType": 5126,
      "count": 64,
      "max": [
        1.0,
        1.0,
        1.0
      ],
      "min": [
        -1.0,
        -1.0,
        -1.0
      ],
      "type": "VEC3"
    },
    {
      "bufferView": 1,
      "byteOffset": 11072,
      "componentType": 5126,
      "count": 64,
      "max": [
        0.44080063700675964,
        0.9648145437240601
      ],
      "min": [
        0.004484403878450394,
        0.3287176191806793
      ],
      "type": "VEC2"
    },
    {
      "bufferView": 0,
      "byteOffset": 8592,
      "componentType": 5125,
      "count": 108,
      "type": "SCALAR"
    },
    {
      "bufferView": 2,
      "byteOffset": 34752,
      "componentType": 5126,
      "count": 64,
      "max": [
        0.35632920265197754,
        0.2788585424423218,
        0.278858482837677
      ],
      "min": [
        -0.3037119209766388,
        -0.278858482837677,
        -0.278858482837677
      ],
      "type": "VEC3"
    },
    {
      "bufferView": 2,
      "byteOffset": 35520,
      "componentType": 5126,
      "count": 64,
      "max": [
        1.0,
        1.0,
        1.0
      ],
      "min": [
        -1.0,
        -1.0,
        -1.0
      ],
      "type": "VEC3"
    },
    {
      "bufferView": 1,
      "byteOffset": 11584,
      "componentType": 5126,
      "count": 64,
      "max": [
        0.44080063700675964,
        0.9648145437240601
      ],
      "min": [
        0.004484403878450394,
        0.3287176191806793
      ],
      "type": "VEC2"
    },
    {
      "bufferView": 0,
      "byteOffset": 9024,
      "componentType": 5125,
      "count": 108,
      "type": "SCALAR"
    }
  ],
  "asset": {
    "extras": {
      "author": "Drillimpact (https://sketchfab.com/Drillimpact)",
      "license": "CC-BY-4.0 (http://creativecommons.org/licenses/by/4.0/)",
      "source": "https://sketchfab.com/3d-models/psx-storage-shelves-cardboard-boxs-07052162b960480898d451e9854b46e8",
      "title": "PSX Storage Shelves & Cardboard Boxs"
    },
    "generator": "Sketchfab-16.28.0",
    "version": "2.0"
  },
  "bufferViews": [
    {
      "buffer": 0,
      "byteLength": 9456,
      "name": "floatBufferViews",
      "target": 34963
    },
    {
      "buffer": 0,
      "byteLength": 12096,
      "byteOffset": 9456,
      "byteStride": 8,
      "name": "floatBufferViews",
      "target": 34962
    },
    {
      "buffer": 0,
      "byteLength": 36288,
      "byteOffset": 21552,
      "byteStride": 12,
      "name": "floatBufferViews",
      "target": 34962
    }
  ],
  "buffers": [
    {
      "byteLength": 57840,
      "uri": "scene.bin"
    }
  ],
  "images": [
    {
      "uri": "textures/Storage_Shelves_baseColor.png"
    }
  ],
  "materials": [
    {
      "doubleSided": true,
      "name": "Storage_Shelves",
      "pbrMetallicRoughness": {
        "baseColorTexture": {
          "index": 0
        },
        "metallicFactor": 0.0
      }
    }
  ],
  "meshes": [
    {
      "name": "Storage_Shelves_01_Storage_Shelves_0",
      "primitives": [
        {
          "attributes": {
            "NORMAL": 1,
            "POSITION": 0,
            "TEXCOORD_0": 2
          },
          "indices": 3,
          "material": 0,
          "mode": 4
        }
      ]
    },
    {
      "name": "Storage_Shelves_02_Storage_Shelves_0",
      "primitives": [
        {
          "attributes": {
            "NORMAL": 5,
            "POSITION": 4,
            "TEXCOORD_0": 6
          },
          "indices": 7,
          "material": 0,
          "mode": 4
        }
      ]
    },
    {
      "name": "Storage_Shelves_03_Storage_Shelves_0",
      "primitives": [
        {
          "attributes": {
            "NORMAL": 9,
            "POSITION": 8,
            "TEXCOORD_0": 10
          },
          "indices": 11,
          "material": 0,
          "mode": 4
        }
      ]
    },
    {
      "name": "Storage_Shelves_04_Storage_Shelves_0",
      "primitives": [
        {
          "attributes": {
            "NORMAL": 13,
            "POSITION": 12,
            "TEXCOORD_0": 14
          },
          "indices": 15,
          "material": 0,
          "mode": 4
        }
      ]
    },
    {
      "name": "Cardboard_box_04_Storage_Shelves_0",
      "primitives": [
        {
          "attributes": {
            "NORMAL": 17,
            "POSITION": 16,
            "TEXCOORD_0": 18
          },
          "indices": 19,
          "material": 0,
          "mode": 4
        }
      ]
    },
    {
      "name": "Cardboard_box_03_Storage_Shelves_0",
      "primitives": [
        {
          "attributes": {
            "NORMAL": 21,
            "POSITION": 20,
            "TEXCOORD_0": 22
          },
          "indices": 23,
          "material": 0,
          "mode": 4
        }
      ]
    },
    {
      "name": "Cardboard_box_01_Storage_Shelves_0",
      "primitives": [
        {
          "attributes": {
            "NORMAL": 25,
            "POSITION": 24,
            "TEXCOORD_0": 26
          },
          "indices": 27,
          "material": 0,
          "mode": 4
        }
      ]
    },
    {
      "name": "Cardboard_box_02_Storage_Shelves_0",
      "primitives": [
        {
          "attributes": {
            "NORMAL": 29,
            "POSITION": 28,
            "TEXCOORD_0": 30
          },
          "indices": 31,
          "material": 0,
          "mode": 4
        }
      ]
    }
  ],
  "nodes": [
    {
      "children": [
        1
      ],
      "matrix": [
        1.0,
        0.0,
        0.0,
        0.0,
        0.0,
        2.220446049250313e-16,
        -1.0,
        0.0,
        0.0,
        1.0,
        2.220446049250313e-16,
        0.0,
        0.0,
        0.0,
        0.0,
        1.0
      ],
      "name": "Sketchfab_model"
    },
    {
      "children": [
        2
      ],
      "matrix": [
        0.009999999776482582,
        0.0,
        0.0,
        0.0,
        0.0,
        0.0,
        0.009999999776482582,
        0.0,
        0.0,
        -0.009999999776482582,
        0.0,
        0.0,
        0.0,
        0.0,
        0.0,
        1.0
      ],
      "name": "Storage_Shelves_and_Cardboard_Boxs.fbx"
    },
    {
      "children": [
        3,
        5,
        7,
        9,
        11,
        13,
        15,
        17
      ],
      "name": "RootNode"
    },
    {
      "children": [
        4
      ],
      "matrix": [
        100.0,
        0.0,
        0.0,
        0.0,
        -0.0,
        -1.629206793918314e-05,
        -99.99999999999868,
        0.0,
        0.0,
        99.99999999999868,
        -1.629206793918314e-05,
        0.0,
        -355.27825927734375,
        107.52542877197266,
        -9.78071398094471e-07,
        1.0
      ],
      "name": "Storage_Shelves_01"
    },
    {
      "mesh": 0,
      "name": "Storage_Shelves_01_Storage_Shelves_0"
    },
    {
      "children": [
        6
      ],
      "matrix": [
        100.0,
        0.0,
        0.0,
        0.0,
        -0.0,
        -1.629206793918314e-05,
        -99.99999999999868,
        0.0,
        0.0,
        99.99999999999868,
        -1.629206793918314e-05,
        0.0,
        -117.8506851196289,
        107.52542877197266,
        -9.78071398094471e-07,
        1.0
      ],
      "name": "Storage_Shelves_02"
    },
    {
      "mesh": 1,
      "name": "Storage_Shelves_02_Storage_Shelves_0"
    },
    {
      "children": [
        8
      ],
      "matrix": [
        100.0,
        0.0,
        0.0,
        0.0,
        0.0,
        -1.629206793918314e-05,
        -99.99999999999868,
        0.0,
        0.0,
        99.99999999999868,
        -1.629206793918314e-05,
        0.0,
        118.02491760253906,
        107.52542877197266,
        -9.78071398094471e-07,
        1.0
      ],
      "name": "Storage_Shelves_03"
    },
    {
      "mesh": 2,
      "name": "Storage_Shelves_03_Storage_Shelves_0"
    },
    {
      "children": [
        10
      ],
      "matrix": [
        100.0,
        0.0,
        0.0,
        0.0,
        0.0,
        -1.629206793918314e-05,
        -99.99999999999868,
        0.0,
        0.0,
        99.99999999999868,
        -1.629206793918314e-05,
        0.0,
        349.9378662109375,
        107.52542877197266,
        -9.78071398094471e-07,
        1.0
      ],
      "name": "Storage_Shelves_04"
    },
    {
      "mesh": 3,
      "name": "Storage_Shelves_04_Storage_Shelves_0"
    },
    {
      "children": [
        12
      ],
      "matrix": [
        100.0,
        0.0,
        0.0,
        0.0,
        0.0,
        -1.629206793918314e-05,
        -99.99999999999868,
        0.0,
        0.0,
        99.99999999999868,
        -1.629206793918314e-05,
        0.0,
        145.8872528076172,
        19.543365478515625,
        136.30087280273438,
        1.0
      ],
      "name": "Cardboard_box_04"
    },
    {
      "mesh": 4,
      "name": "Cardboard_box_04_Storage_Shelves_0"
    },
    {
      "children": [
        14
      ],
      "matrix": [
        100.0,
        0.0,
        0.0,
        0.0,
        0.0,
        -1.629206793918314e-05,
        -99.99999999999868,
        0.0,
        0.0,
        99.99999999999868,
        -1.629206793918314e-05,
        0.0,
        51.173858642578125,
        27.885835647583008,
        144.64332580566406,
        1.0
      ],
      "name": "Cardboard_box_03"
    },
    {
      "mesh": 5,
      "name": "Cardboard_box_03_Storage_Shelves_0"
    },
    {
      "children": [
        16
      ],
      "matrix": [
        100.0,
        0.0,
        0.0,
        0.0,
        -0.0,
        -1.629206793918314e-05,
        -99.99999999999868,
        0.0,
        0.0,
        99.99999999999868,
        -1.629206793918314e-05,
        0.0,
        -163.82362365722656,
        27.885835647583008,
        144.64332580566406,
        1.0
      ],
      "name": "Cardboard_box_01"
    },
    {
      "mesh": 6,
      "name": "Cardboard_box_01_Storage_Shelves_0"
    },
    {
      "children": [
        18
      ],
      "matrix": [
        100.0,
        0.0,
        0.0,
        0.0,
        -0.0,
        -1.629206793918314e-05,
        -99.99999999999868,
        0.0,
        0.0,
        99.99999999999868,
        -1.629206793918314e-05,
        0.0,
        -56.72365951538086,
        27.885835647583008,
        144.64332580566406,
        1.0
      ],
      "name": "Cardboard_box_02"
    },
    {
      "mesh": 7,
      "name": "Cardboard_box_02_Storage_Shelves_0"
    }
  ],
  "samplers": [
    {
      "magFilter": 9728,
      "minFilter": 9728,
      "wrapS": 10497,
      "wrapT": 10497
    }
  ],
  "scene": 0,
  "scenes": [
    {
      "name": "Sketchfab_Scene",
      "nodes": [
        0
      ]
    }
  ],
  "textures": [
    {
      "sampler": 0,
      "source": 0
    }
  ]
}
