{
  "accessors": [
    {
      "bufferView": 2,
      "componentType": 5126,
      "count": 963,
      "max": [
        3.579033136367798,
        4.945829391479492,
        1.6192553043365479
      ],
      "min": [
        -7.5789690017700195,
        -3.000154733657837,
        -10.8129301071167
      ],
      "type": "VEC3"
    },
    {
      "bufferView": 2,
      "byteOffset": 11556,
      "componentType": 5126,
      "count": 963,
      "max": [
        0.9999074339866638,
        0.9998185038566589,
        0.9993884563446045
      ],
      "min": [
        -0.9995726943016052,
        -0.997491180896759,
        -0.9995755553245544
      ],
      "type": "VEC3"
    },
    {
      "bufferView": 1,
      "componentType": 5126,
      "count": 963,
      "max": [
        0.602802038192749,
        0.6035664081573486
      ],
      "min": [
        0.0014156396500766277,
        0.02445697784423828
      ],
      "type": "VEC2"
    },
    {
      "bufferView": 1,
      "byteOffset": 7704,
      "componentType": 5126,
      "count": 963,
      "max": [
        0.875,
        1.0
      ],
      "min": [
        0.0,
        0.0
      ],
      "type": "VEC2"
    },
    {
      "bufferView": 0,
      "componentType": 5125,
      "count": 2454,
      "type": "SCALAR"
    }
  ],
  "asset": {
    "extras": {
      "author": "petya-petyavich (https://sketchfab.com/petya-petyavich)",
      "license": "CC-BY-4.0 (http://creativecommons.org/licenses/by/4.0/)",
      "source": "https://sketchfab.com/3d-models/psx-ghost-b1151988033c4baf82c3510dcd0f78a6",
      "title": "psx ghost"
    },
    "generator": "Sketchfab-15.87.0",
    "version": "2.0"
  },
  "bufferViews": [
    {
      "buffer": 0,
      "byteLength": 9816,
      "name": "floatBufferViews",
      "target": 34963
    },
    {
      "buffer": 0,
      "byteLength": 15408,
      "byteOffset": 9816,
      "byteStride": 8,
      "name": "floatBufferViews",
      "target": 34962
    },
    {
      "buffer": 0,
      "byteLength": 23112,
      "byteOffset": 25224,
      "byteStride": 12,
      "name": "floatBufferViews",
      "target": 34962
    }
  ],
  "buffers": [
    {
      "byteLength": 48336,
      "uri": "scene.bin"
    }
  ],
  "extensionsUsed": [
    "KHR_materials_specular"
  ],
  "images": [
    {
      "uri": "textures/None_NAKKEDDD.bmp.002_baseColor.png"
    }
  ],
  "materials": [
    {
      "doubleSided": true,
      "extensions": {
        "KHR_materials_specular": {
          "specularColorFactor": [
            1.0,
            1.0,
            1.0
          ],
          "specularFactor": 0.0
        }
      },
      "name": "None_NAKKEDDD.bmp.002",
      "pbrMetallicRoughness": {
        "baseColorTexture": {
          "index": 0
        },
        "metallicFactor": 0.0
      }
    }
  ],
  "meshes": [
    {
      "name": "Object_0",
      "primitives": [
        {
          "attributes": {
            "NORMAL": 1,
            "POSITION": 0,
            "TEXCOORD_0": 2,
            "TEXCOORD_1": 3
          },
          "indices": 4,
          "material": 0,
          "mode": 4
        }
      ]
    }
  ],
  "nodes": [
    {
      "children": [
        1
      ],
      "matrix": [
        1.0,
        0.0,
        0.0,
        0.0,
        0.0,
        2.220446049250313e-16,
        -1.0,
        0.0,
        0.0,
        1.0,
        2.220446049250313e-16,
        0.0,
        0.0,
        0.0,
        0.0,
        1.0
      ],
      "name": "Sketchfab_model"
    },
    {
      "children": [
        2
      ],
      "name": "root"
    },
    {
      "children": [
        3
      ],
      "matrix": [
        1.0,
        0.0,
        0.0,
        0.0,
        0.0,
        2.220446049250313e-16,
        1.0,
        0.0,
        0.0,
        -1.0,
        2.220446049250313e-16,
        0.0,
        0.0,
        0.0,
        0.0,
        1.0
      ],
      "name": "GLTF_SceneRootNode"
    },
    {
      "children": [
        4
      ],
      "matrix": [
        -0.9999999999966445,
        1.8318507354741677e-06,
        1.8318501178203774e-06,
        0.0,
        -1.8318507354741677e-06,
        -3.371731160939362e-07,
        -0.9999999999982654,
        0.0,
        -1.8318501178203774e-06,
        -0.9999999999982654,
        3.371764717430281e-07,
        0.0,
        0.0,
        0.0,
        0.0,
        1.0
      ],
      "name": "Object_1.002_0"
    },
    {
      "mesh": 0,
      "name": "Object_4"
    }
  ],
  "samplers": [
    {
      "magFilter": 9729,
      "minFilter": 9987,
      "wrapS": 10497,
      "wrapT": 10497
    }
  ],
  "scene": 0,
  "scenes": [
    {
      "name": "Sketchfab_Scene",
      "nodes": [
        0
      ]
    }
  ],
  "textures": [
    {
      "sampler": 0,
      "source": 0
    }
  ]
}
